<svg width="116" height="19" viewBox="0 0 116 19" fill="none" xmlns="http://www.w3.org/2000/svg">
<path d="M6.886 14.48L9.548 5.724H13.552L9.196 18H4.554L0.198 5.724H4.224L6.886 14.48ZM17.0275 4.448C16.3675 4.448 15.8248 4.25733 15.3995 3.876C14.9888 3.48 14.7835 2.996 14.7835 2.424C14.7835 1.83733 14.9888 1.35333 15.3995 0.971999C15.8248 0.575999 16.3675 0.377999 17.0275 0.377999C17.6728 0.377999 18.2008 0.575999 18.6115 0.971999C19.0368 1.35333 19.2495 1.83733 19.2495 2.424C19.2495 2.996 19.0368 3.48 18.6115 3.876C18.2008 4.25733 17.6728 4.448 17.0275 4.448ZM18.8975 5.724V18H15.1355V5.724H18.8975ZM28.4658 14.81V18H26.5518C25.1878 18 24.1244 17.67 23.3618 17.01C22.5991 16.3353 22.2178 15.2427 22.2178 13.732V8.848H20.7218V5.724H22.2178V2.732H25.9798V5.724H28.4438V8.848H25.9798V13.776C25.9798 14.1427 26.0678 14.4067 26.2438 14.568C26.4198 14.7293 26.7131 14.81 27.1238 14.81H28.4658ZM32.4533 4.448C31.7933 4.448 31.2506 4.25733 30.8253 3.876C30.4146 3.48 30.2093 2.996 30.2093 2.424C30.2093 1.83733 30.4146 1.35333 30.8253 0.971999C31.2506 0.575999 31.7933 0.377999 32.4533 0.377999C33.0986 0.377999 33.6266 0.575999 34.0373 0.971999C34.4626 1.35333 34.6753 1.83733 34.6753 2.424C34.6753 2.996 34.4626 3.48 34.0373 3.876C33.6266 4.25733 33.0986 4.448 32.4533 4.448ZM34.3233 5.724V18H30.5613V5.724H34.3233ZM44.5295 5.592C45.9669 5.592 47.1109 6.06133 47.9615 7C48.8269 7.924 49.2595 9.2 49.2595 10.828V18H45.5195V11.334C45.5195 10.5127 45.3069 9.87467 44.8815 9.42C44.4562 8.96533 43.8842 8.738 43.1655 8.738C42.4469 8.738 41.8749 8.96533 41.4495 9.42C41.0242 9.87467 40.8115 10.5127 40.8115 11.334V18H37.0495V5.724H40.8115V7.352C41.1929 6.80933 41.7062 6.384 42.3515 6.076C42.9969 5.75333 43.7229 5.592 44.5295 5.592ZM53.6338 18.176C52.9738 18.176 52.4311 17.9853 52.0058 17.604C51.5951 17.208 51.3898 16.724 51.3898 16.152C51.3898 15.5653 51.5951 15.074 52.0058 14.678C52.4311 14.282 52.9738 14.084 53.6338 14.084C54.2791 14.084 54.8071 14.282 55.2178 14.678C55.6431 15.074 55.8558 15.5653 55.8558 16.152C55.8558 16.724 55.6431 17.208 55.2178 17.604C54.8071 17.9853 54.2791 18.176 53.6338 18.176ZM65.5628 5.592C67.0001 5.592 68.1441 6.06133 68.9948 7C69.8601 7.924 70.2928 9.2 70.2928 10.828V18H66.5528V11.334C66.5528 10.5127 66.3401 9.87467 65.9148 9.42C65.4894 8.96533 64.9174 8.738 64.1988 8.738C63.4801 8.738 62.9081 8.96533 62.4828 9.42C62.0574 9.87467 61.8448 10.5127 61.8448 11.334V18H58.0828V5.724H61.8448V7.352C62.2261 6.80933 62.7394 6.384 63.3848 6.076C64.0301 5.75333 64.7561 5.592 65.5628 5.592ZM84.479 11.664C84.479 12.016 84.457 12.3827 84.413 12.764H75.899C75.9576 13.5267 76.1996 14.1133 76.625 14.524C77.065 14.92 77.6003 15.118 78.231 15.118C79.1696 15.118 79.8223 14.722 80.189 13.93H84.193C83.9876 14.7367 83.6136 15.4627 83.071 16.108C82.543 16.7533 81.8756 17.2593 81.069 17.626C80.2623 17.9927 79.3603 18.176 78.363 18.176C77.1603 18.176 76.0896 17.9193 75.151 17.406C74.2123 16.8927 73.479 16.1593 72.951 15.206C72.423 14.2527 72.159 13.138 72.159 11.862C72.159 10.586 72.4156 9.47133 72.929 8.518C73.457 7.56467 74.1903 6.83133 75.129 6.318C76.0676 5.80467 77.1456 5.548 78.363 5.548C79.551 5.548 80.607 5.79733 81.531 6.296C82.455 6.79467 83.1736 7.506 83.687 8.43C84.215 9.354 84.479 10.432 84.479 11.664ZM80.629 10.674C80.629 10.0287 80.409 9.51533 79.969 9.134C79.529 8.75267 78.979 8.562 78.319 8.562C77.6883 8.562 77.153 8.74533 76.713 9.112C76.2876 9.47867 76.0236 9.99933 75.921 10.674H80.629ZM104.086 5.724L100.764 18H96.6056L94.6696 10.036L92.6676 18H88.5316L85.1876 5.724H88.9496L90.6876 14.502L92.7556 5.724H96.7376L98.8276 14.458L100.544 5.724H104.086ZM110.514 18.176C109.444 18.176 108.49 17.9927 107.654 17.626C106.818 17.2593 106.158 16.7607 105.674 16.13C105.19 15.4847 104.919 14.766 104.86 13.974H108.578C108.622 14.3993 108.82 14.744 109.172 15.008C109.524 15.272 109.957 15.404 110.47 15.404C110.94 15.404 111.299 15.316 111.548 15.14C111.812 14.9493 111.944 14.7073 111.944 14.414C111.944 14.062 111.761 13.8053 111.394 13.644C111.028 13.468 110.434 13.2773 109.612 13.072C108.732 12.8667 107.999 12.654 107.412 12.434C106.826 12.1993 106.32 11.84 105.894 11.356C105.469 10.8573 105.256 10.19 105.256 9.354C105.256 8.65 105.447 8.012 105.828 7.44C106.224 6.85333 106.796 6.39133 107.544 6.054C108.307 5.71667 109.209 5.548 110.25 5.548C111.79 5.548 113 5.92933 113.88 6.692C114.775 7.45467 115.288 8.46667 115.42 9.728H111.944C111.886 9.30267 111.695 8.96533 111.372 8.716C111.064 8.46667 110.654 8.342 110.14 8.342C109.7 8.342 109.363 8.43 109.128 8.606C108.894 8.76733 108.776 8.99467 108.776 9.288C108.776 9.64 108.96 9.904 109.326 10.08C109.708 10.256 110.294 10.432 111.086 10.608C111.996 10.8427 112.736 11.0773 113.308 11.312C113.88 11.532 114.379 11.8987 114.804 12.412C115.244 12.9107 115.472 13.5853 115.486 14.436C115.486 15.1547 115.281 15.8 114.87 16.372C114.474 16.9293 113.895 17.3693 113.132 17.692C112.384 18.0147 111.512 18.176 110.514 18.176Z" fill="#E1E1E6"/>
</svg>
